<svg xmlns:rdf="http://www.w3.org/1999/02/22-rdf-syntax-ns#" xmlns="http://www.w3.org/2000/svg" height="10.915mm" width="17.649mm" version="1.1" xmlns:cc="http://creativecommons.org/ns#" xmlns:dc="http://purl.org/dc/elements/1.1/" viewBox="0 0 62.535912 38.674397">
 <g transform="translate(-144.4 -513.1)" fill="white">
  <text style="word-spacing:0px;letter-spacing:0px" xml:space="preserve" font-size="40px" y="255.21935" x="-617.14288" font-family="sans-serif" line-height="125%"><tspan y="255.21935" x="-617.14288"/></text>
  <g>
   <g transform="translate(25.952)">
    <path d="m141.58 517.6c0-0.9-0.55-1.35-1.65-1.35v-1.35h7.5496v1.35c-0.35 0-0.675 0.125-0.975 0.375-0.25 0.2-0.375 0.525-0.375 0.975v30.05c0 0.45 0.125 0.8 0.375 1.05 0.3 0.2 0.625 0.3 0.975 0.3v1.35h-7.5496v-1.35c1.1 0 1.65-0.45 1.65-1.35v-14.1h-17.15v14.1c0 0.45 0.125 0.8 0.375 1.05 0.3 0.2 0.625 0.3 0.975 0.3v1.35h-7.3249v-1.35c0.95 0 1.425-0.45 1.425-1.35v-30.05c0-0.9-0.475-1.35-1.425-1.35v-1.35h7.3249v1.35c-0.35 0-0.675 0.125-0.975 0.375-0.25 0.2-0.375 0.525-0.375 0.975v12.75h17.15z"/>
   </g>
   <g transform="translate(-8.9999 -.73371)">
    <path d="m214.14 519.73c0-0.55-0.225-0.95-0.675-1.2-0.4-0.3-1.125-0.45-2.175-0.45h-16.3v13.3h6.7003c1 0 1.775-0.125 2.325-0.375 0.55-0.3 0.825-1.025 0.825-2.175h1.35v7.6997h-1.35c0-1.15-0.275-1.875-0.825-2.175-0.55-0.35-1.325-0.525-2.325-0.525h-6.7003v14.35h17.05c0.75 0 1.35-0.175 1.8-0.525 0.5-0.35 0.75-0.825 0.75-1.425h1.35v6.2749h-1.35c0-0.75-0.25-1.175-0.75-1.275-0.45-0.1-1.05-0.15-1.8-0.15h-22.951v-1.35c0.35 0 0.65-0.1 0.9-0.3 0.3-0.25 0.45-0.6 0.45-1.05v-30.05c0-0.45-0.15-0.775-0.45-0.975-0.25-0.25-0.55-0.375-0.9-0.375v-1.35h22.201c1.05 0 1.775-0.15 2.175-0.45 0.45-0.35 0.675-0.8 0.675-1.35h1.35v5.8996z"/>
   </g>
   <g transform="translate(-4.8604 .33243)">
    <path d="m180.81 528.71q-0.525 0-0.9 0.255-0.36 0.24-0.36 0.765t0.36 0.78q0.375 0.24 0.9 0.24t0.885-0.24q0.375-0.255 0.375-0.78t-0.375-0.765q-0.36-0.255-0.885-0.255zm-1.95 4.365q0 0.375 0.165 0.645t0.435 0.435 0.585 0.24q0.33 0.075 0.645 0.075 0.3 0 0.57-0.09 0.285-0.105 0.51-0.255t0.36-0.33q0.15-0.195 0.18-0.39-0.225-0.315-0.33-0.615-0.105-0.315-0.24-0.555-0.135-0.255-0.36-0.405t-0.69-0.15q-0.315 0-0.645 0.075-0.315 0.075-0.585 0.24t-0.435 0.435q-0.165 0.255-0.165 0.645zm6.975 2.55q-0.555 0-0.975-0.075-0.405-0.09-0.72-0.24-0.3-0.15-0.525-0.33-0.21-0.195-0.39-0.39-0.36 0.3-0.675 0.51-0.3 0.195-0.63 0.33-0.315 0.12-0.69 0.15-0.36 0.045-0.84 0.045-0.54 0-1.11-0.12-0.555-0.12-1.02-0.405-0.45-0.285-0.75-0.735t-0.3-1.08q0-0.495 0.15-0.855 0.165-0.375 0.435-0.645t0.645-0.45 0.81-0.3v-0.03q-0.465-0.15-0.81-0.525-0.33-0.39-0.33-0.9 0-0.525 0.24-0.885 0.255-0.375 0.63-0.615 0.39-0.255 0.87-0.36 0.495-0.12 0.96-0.12 0.48 0 0.96 0.12 0.48 0.105 0.855 0.36 0.39 0.24 0.63 0.615 0.255 0.36 0.255 0.885t-0.3 0.915q-0.285 0.375-0.63 0.495 0.195 0.135 0.315 0.33 0.12 0.18 0.21 0.375 0.09 0.18 0.165 0.36 0.075 0.165 0.18 0.27 0.225-0.405 0.525-0.75t0.6-0.6q0.3-0.27 0.54-0.42 0.255-0.165 0.375-0.195 0.075-0.03 0.135-0.06 0.06-0.045 0.06-0.105h0.15v2.31h-0.15q-0.03-0.09-0.105-0.21-0.06-0.12-0.225-0.12-0.18 0-0.345 0.15t-0.3 0.375q-0.135 0.21-0.24 0.435t-0.15 0.375q0.21 0.27 0.495 0.495 0.3 0.21 0.555 0.225 0.21 0 0.255-0.135 0.06-0.135 0.06-0.3h0.15v1.83z"/>
   </g>
  </g>
 </g>
</svg>
