<svg xmlns:rdf="http://www.w3.org/1999/02/22-rdf-syntax-ns#" xmlns="http://www.w3.org/2000/svg" height="100px" version="1.1" xmlns:cc="http://creativecommons.org/ns#" xmlns:dc="http://purl.org/dc/elements/1.1/" viewBox="0 0 551.24999 596.24998" fill="#ffffff" fill-opacity="0.04">
 <g transform="translate(-122.69 -291.02)">
  <path d="m184.64 547.88c-13.552-5.4627-16.629-9.2145-26.787-32.671-9.6032-22.175-10.132-24.427-9.354-39.805 0.35758-7.0649 1.1244-15.057 1.7041-17.76 0.57967-2.7029 6.0336-14.868 12.12-27.033 6.0863-12.165 11.066-22.529 11.066-23.031 0-1.5058-9.5628-0.07-28.789 4.3226l-18.183 4.1541-23.69 15.886c-13.03 8.7373-25.793 17.988-28.362 20.558-5.1365 5.1362-10.477 12.9-22.399 32.564-7.7662 12.809-7.8766 13.087-7.8766 19.805 0 6.257 0.29462 7.1996 3.6058 11.536 1.9832 2.5973 4.8696 7.7766 6.4143 11.509 1.5447 3.7329 4.0961 9.0844 5.6698 11.892 4.2725 7.6231 3.4768 8.532-7.4681 8.532h-9.0143l-5.7775-6.2403c-5.8753-6.346-8.3472-10.884-11.114-20.401-1.3802-4.7476-1.3845-6.5435-0.04058-16.772 1.7381-13.229 1.4225-12.583 25.375-51.911 15.7-25.778 15.238-25.277 43.363-46.99 6.667-5.147 14.028-10.916 16.358-12.821 4.2628-3.4848 13.242-17.426 15.346-23.827 0.60928-1.8534 2.0097-11.62 3.112-21.703 2.1399-19.574 2.5094-20.881 11.054-39.098 2.8286-6.0302 5.143-11.144 5.143-11.364 0-0.22011-6.9658-0.4002-15.48-0.4002h-15.48l-4.6535-3.3086c-8.1446-5.7906-13.018-10.836-12.68-13.129 0.21419-1.4538 4.2252-4.5873 12.937-10.107 6.9448-4.4 15.782-10.335 19.637-13.189 3.8558-2.8539 11.811-7.6956 17.678-10.759l10.667-5.5704 2.3338-7.0711c5.2956-16.045 4.8262-18.218-12.047-55.773-6.1413-13.669-11.553-25.871-12.026-27.116-0.60689-1.5963 0.16252-5.9208 2.611-14.675 4.6721-16.705 4.4036-27.562-1.047-42.342-0.92201-2.5001-1.9197-5.4548-2.217-6.566-0.29736-1.1112 7.1858 5.7103 16.629 15.159 15.028 15.036 17.309 17.745 18.284 21.718 0.61253 2.4966 4.5042 14.994 8.6482 27.773 11.21 34.567 10.955 29.971 2.7037 48.778-7.7923 17.761-13.521 34.619-13.064 38.44 0.16677 1.3914 0.92114 2.7329 1.6764 2.9812 2.4549 0.80709 20.651-19.942 33.036-37.671 2.7168-3.8891 9.6623-11.938 15.434-17.886 10.222-10.534 10.709-10.886 18.712-13.526 13.921-4.5926 31.064-11.439 36.66-14.641 6.6336-3.7953 18.46-12.778 24.969-18.966 4.888-4.6465 4.9196-4.6589 4.211-1.6512-1.6114 6.8398-27.09 53.256-31.879 58.075-1.9525 1.965-7.8619 5.7337-13.132 8.3749-7.7786 3.8983-12.624 5.4628-25.744 8.3126-25.261 5.4867-29.235 6.9061-34.498 12.321-5.6054 5.7675-12.63 14.863-14.924 19.322-1.3727 2.669-1.5896 4.7131-1.0423 9.8238 0.50151 4.683 0.21027 8.4158-1.0616 13.606-2.5786 10.522-1.7284 28.255 1.8096 37.74 3.8379 10.289 3.1329 9.9906 18.138 7.6872 19.872-3.0505 56.269-11.544 61.946-14.456 7.7504-3.9751 34.042-23.232 36.335-26.613 1.1298-1.666 4.0292-8.3587 6.4432-14.873 4.3179-11.652 4.4753-11.899 9.7106-15.248 3.962-2.5345 5.6358-4.3566 6.5519-7.1323 1.8852-5.7122 0.8231-13.758-2.4736-18.74l-2.8114-4.2484 4.4047 0.69941c8.0909 1.2847 14.67 5.0472 17.996 10.291 1.662 2.6207 3.5239 6.2862 4.1375 8.1456 0.61367 1.8594 1.4405 3.3807 1.8374 3.3807 1.4835 0 18.981-10.462 23.113-13.819 5.3241-4.3264 5.3774-5.6679 0.70558-17.786-9.7182-25.208-25.601-48.334-47.884-69.722-16.123-15.475-39.661-29.559-57.12-34.177-11.062-2.926-37.194-3.1906-50.345-0.50992-4.911 1.001-9.1239 1.6253-9.3619 1.3873-0.64676-0.64677 10.061-6.1402 19.806-10.161 9.8063-4.0461 26.824-8.7204 42.73-11.737 8.704-1.6507 14.977-2.0691 31.018-2.0691 18.489 0 21.296 0.24718 34.875 3.0711 8.1223 1.6891 18.39 4.2153 22.817 5.6137 24.977 7.8904 51.584 22.364 69.57 37.844 3.8338 3.2997 7.3817 5.9994 7.8842 5.9994 0.50248 0 3.2748-2.7146 6.1606-6.0326 2.8858-3.3179 8.6362-8.802 12.779-12.187l7.5317-6.1544 1.0886 2.843c0.59876 1.5637 1.1417 6.4796 1.2065 10.924 0.10101 6.9241-0.35433 9.2678-3.18 16.369-1.8138 4.5581-4.2516 9.5-5.4173 10.982-1.414 1.7976-1.8107 3.1237-1.1919 3.984 7.1922 9.999 12.096 15.638 13.222 15.206 0.7409-0.28431 7.4717-4.427 14.957-9.206 13.43-8.5738 13.676-8.7985 18.601-16.951 3.7311-6.1764 7.5681-10.62 15.201-17.606 5.6154-5.1392 10.824-9.3439 11.575-9.3439 1.6425 0 2.6275 4.3903 2.6275 11.712 0 4.6676-0.68664 6.5611-5.0708 13.984l-5.0708 8.585-15.89 10.535c-8.7394 5.7945-18.96 13.093-22.712 16.22l-6.8217 5.684 1.394 3.2582c0.76671 1.792 3.3254 7.5766 5.6859 12.855 12.511 27.973 16.927 50.452 15.864 80.743-0.89606 25.518-7.0527 49.942-19.381 76.886-14.036 30.677-38.195 59.261-68.711 81.3-9.5454 6.8937-36.438 20.175-49.966 24.677-5.2577 1.7496-16.395 4.5574-24.749 6.2396-15.082 3.037-15.353 3.054-38.423 2.417-15.733-0.43442-26.851-1.2694-34.44-2.5866-10.742-1.8645-34.864-9.0621-43.342-12.933l-4.0406-1.8446 23.234-0.59975c27.391-0.70707 35.491-2.0828 48.487-8.2355 21.275-10.072 50.001-37.708 67.674-65.107 5.3039-8.2228 16.054-30.061 20.207-41.049 4.6853-12.397 9.7103-33.716 10.337-43.858 0.56163-9.0842 0.50133-9.4755-1.3381-8.6839-9.5351 4.1031-22.21 6.58-33.671 6.58-3.2118 0-8.5937 0.28785-11.96 0.63968l-6.1202 0.63969-3.2197 11.735c-6.0543 22.066-15.002 47.989-18.39 53.279-4.3126 6.7339-31.917 30.951-40.11 35.187-1.5188 0.78537-7.9532 2.1514-14.299 3.0356-22.558 3.1434-39.758 6.6378-41.447 8.4203-0.89418 0.94375-5.881 8.3072-11.082 16.363-5.2008 8.056-13.893 21.011-19.317 28.789-5.4236 7.7782-11.119 16.188-12.657 18.688l-2.7958 4.5457 0.32616 17.091c0.32602 17.085 0.32746 17.094 3.6916 23.739 3.8664 7.6364 6.9246 10.753 14.531 14.81 3.8695 2.0636 6.5042 4.484 9.2247 8.4748 2.0945 3.0724 5.6801 7.2576 7.968 9.3004 6.5486 5.847 5.1993 8.939-3.8709 8.8702-3.9474-0.0299-8.106-1.0501-14.054-3.4474z" transform="translate(97.334 215.43)"/>
 </g>
</svg>
