<svg xmlns:rdf="http://www.w3.org/1999/02/22-rdf-syntax-ns#" xmlns="http://www.w3.org/2000/svg" height="95.073" width="109.58" version="1.1" xmlns:cc="http://creativecommons.org/ns#" xmlns:dc="http://purl.org/dc/elements/1.1/" viewBox="0 0 109.57429 95.07295">
 <g transform="matrix(.24647 0 0 .26288 -43.883 -73.783)">
  <path d="m546.7 641.83c-16.835-1.537-37.061-12.675-43.753-24.093-3.9134-6.6777-6.7748-21.168-6.8096-34.483-0.03-11.464 1.1476-14.055 4.861-10.694 5.0566 5.7668 9.1391 12.675 11.24 19.442 4.9678 16.355 6.9313 19.42 15.517 24.221 16.463 9.2048 38.379 10.972 51.643 4.164 11.409-5.8556 21.288-21.486 22.579-35.723 0.5648-6.2291-2.9135-37.735-9.609-87.035-0.6536-4.8125-1.5526-12.489-1.9978-17.059l-0.8095-8.3089-5.6639 2.5054c-6.4771 2.8651-17.898 4.2204-24.744 2.9362-3.3084-0.62065-6.5842-2.7911-11.241-7.4476-5.5978-5.5978-6.7962-7.653-8.0864-13.868-2.8615-13.784-1.5666-23.368 4.6613-34.501 0.2286-0.40865-8.7427-1.4091-19.936-2.2232-31.26-2.2735-35.72-2.4162-36.953-1.1828-0.6916 0.69163-0.2246 5.4434 1.1814 12.021 2.3921 11.191 9.5743 47.225 4.2195 56.079-1.0156 4.1154-8.6062 10.424-15.464 10.424-7.3732 0-13.983-2.7624-20.387-8.5206-3.3943-3.0518-6.3106-5.3362-6.4806-5.0765-0.1701 0.25967-2.4831 3.8257-5.14 7.9246-8.8902 13.715-22.417 24.876-38.203 31.522-7.1513 3.0108-9.7729 3.427-21.875 3.4729-12.045 0.0457-14.424-0.30722-19.182-2.8464-15.262-8.1446-28.224-29.935-32.853-55.226-2.2711-12.409-2.329-74.972-0.088-95.625 1.9524-17.998 5.776-42.812 8.5436-55.446 2.0757-9.4752 6.7128-16.72 11.719-18.309 2.8528-0.90545 9.3819 2.2537 10.459 5.0606 1.2867 3.353 0.8482 10.733-1.1383 19.16-8.4903 36.017-12.424 106.58-7.653 137.27 3.5496 22.838 12.917 41.078 23.306 45.381 8.3873 3.4741 26.646-3.8125 38.473-15.354 9.3219-9.0967 18.596-30.948 22.871-53.886 2.8282-15.176 5.146-19.953 10.707-22.067 4.138-1.5733 3.6933-4.0822-1.4142-7.9778-5.2839-4.0303-5.6462-7.8297-1.1493-12.054 2.7624-2.5951 4.4491-3.0304 11.744-3.0304 6.5958 0 9.1066 0.53264 11.126 2.3602 2.2184 2.0077 5.6459 2.5089 22.944 3.3556 11.185 0.54742 25.68 1.618 32.211 2.379 23.972 2.7932 55.141 0.57704 61.058-4.3414 5.6781-4.7197 8.5591-5.7193 13.985-4.8517 9.1495 1.463 9.62 3.599 10.569 47.973 0.9225 43.155 1.5943 52.421 6.9334 95.625 5.713 46.23 5.4015 61.198-1.5685 75.382-5.606 11.408-17.819 24.17-27.683 28.926-6.7449 3.252-9.2475 3.7418-20.793 4.0696-7.2187 0.20492-17.062 0.0131-21.875-0.42627zm-76.56-180.14c0.8067-2.1753 0.022-24.081-1.0837-30.238l-0.9108-5.0742-1.5627 5c-1.9684 6.298-2.1935 22.743-0.3825 27.938 1.4338 4.113 2.9548 5.0296 3.9397 2.374zm101.48-5.9063c4.0913-1.5555 7.5487-7.2642 10.618-17.531 3.5774-11.968 4.4439-18.76 2.3868-18.708-2.3962 0.0607-9.7485 3.8117-14.618 7.4576-9.3353 6.9896-12.988 19.843-7.5887 26.706 2.8215 3.587 4.3302 3.9271 9.2023 2.0747zm-106.07-40.972c-1.3617-1.3617-1.8785 0.41885-1.0146 3.4952l0.8623 3.0704 0.4392-2.9198c0.2415-1.6059 0.1123-3.2465-0.2869-3.6458zm-223.89 164.11c-15.007-2.71-26.524-10.193-43.778-28.442-12.403-13.118-16.288-20.165-18.68-33.876-1.8006-10.326-1.482-23.698 0.6466-27.142 2.8474-2.4716 8.9277 15.89 11.712 20.042 0.9356 1.7188 3.7139 7.0625 6.174 11.875 6.164 12.059 12.881 19.702 24.268 27.619 14.937 10.384 19.427 12.223 31.183 12.776 17.605 0.82728 29.419-4.7599 34.884-16.498 5.6035-12.034 2.965-23.67-9.5447-42.091-6.5418-9.6332-26.85-30.351-29.006-29.59-2.1174 0.7466-1.6035 10.346 0.7457 13.932 1.8147 2.7695 2.4583 6.225 2.1961 11.791-0.076 1.6156-2.1206 4.9197-4.5433 7.3425-4.0683 4.0684-4.8076 4.3406-9.6734 3.5625-5.6924-0.91023-9.9577-4.1646-13.228-10.092-1.7748-3.2172-2.0195-7.4795-1.722-30 0.1907-14.438 0.8706-33 1.5109-41.25 0.6402-8.25 1.5121-36.375 1.9374-62.5 0.4254-26.125 1.0161-48.262 1.3127-49.193 0.2966-0.93134-0.079-3.7563-0.8343-6.2777-1.2481-4.1658-0.9569-5.462 3.1887-14.196 2.5092-5.2863 6.2813-11.058 8.3825-12.826l3.8204-3.2146 5.1675 3.0289c3.4276 2.0091 5.6332 4.4108 6.5506 7.133 1.1493 3.4102 2.9695 4.8736 10.767 8.6555 12.485 6.0558 20.516 12.115 30.372 22.913 12.589 13.794 13.8 17.037 13.38 35.852-0.4147 18.581-2.0769 25.869-9.5456 41.852-7.681 16.437-15.62 28.012-28.203 41.121l-10.653 11.098 4.375 3.277c12.633 9.4622 29.856 28.798 37.992 42.652 9.5381 16.242 12.564 26.219 11.563 38.125-1.2934 15.38-3.8042 21.356-12.716 30.268-11.551 11.551-16.402 13.413-35.589 13.66-8.5938 0.11088-19.58-0.51251-24.413-1.3854zm16.763-158.46c16.956-16.458 30.176-49.655 27.778-69.755-1.1743-9.8416-7.4699-18.033-18.733-24.376-2.4858-1.3997-5.9259-3.3414-7.6446-4.3149-7.207-4.082-7.4935-3.4-7.3433 17.485 0.3134 43.601 0.2395 51.982-0.6038 68.438-0.5021 9.7969-0.4605 17.812 0.092 17.812 0.5529 0 3.4576-2.3802 6.4549-5.2894z"/>
 </g>
</svg>
