<svg xmlns:rdf="http://www.w3.org/1999/02/22-rdf-syntax-ns#" xmlns="http://www.w3.org/2000/svg" height="65.279" width="295.13" version="1.1" xmlns:cc="http://creativecommons.org/ns#" xmlns:dc="http://purl.org/dc/elements/1.1/" viewBox="0 0 295.12374 65.279209">
 <g transform="matrix(.43647 0 0 .43647 -.0032363 -.012134)">
  <path d="m44.848 0.067c2.258-0.233 4.313 0.618 6.39 1.355 4.394 1.57 5.74 2.619 7.204 5.614 1.514 3.097 1.595 4.011 0.509 5.75-1.664 2.665-3.393 2.569-8.31-0.459-4.837-2.98-5.44-3.007-10.949-0.497-11.058 5.037-20.385 22.687-25.656 48.545-1.713 8.405-2.256 14.609-2.316 26.478-0.071 13.997 0.154 16.127 2.318 21.997 4.531 12.29 12.452 21.38 22.952 26.35 5.612 2.65 7.824 3.14 14.151 3.15 8.469 0 14.497-2.27 23.833-8.97l5.27-3.79-1.959-2.12c-8.512-9.21-9.491-28.37-2.049-40.106 3.379-5.328 11.226-9.732 17.64-9.9 3.399-0.089 4.254-0.476 4.259-1.927 0.023-6.587 6.505-8.022 19.005-4.206 15.3 4.669 20.38 5.654 29.5 5.721 6.18 0.046 9.94 0.563 12 1.652 1.8 0.952 4.74 1.46 7.33 1.27 5.79-0.421 8.07 1.825 13.54 13.335 7.07 14.871 17 22.191 28.92 21.331 8.92-0.65 10.22-2.81 13.4-22.287 4.79-8.551 5.52-11.204 8.87-16.25 2.68-4.123 4.52-5.183 9.05-5.219 2.75-0.021 5.3 0.776 7.69 2.396 3.05 2.069 3.75 2.217 4.76 1 1.77-2.135 6.49-1.723 9.41 0.823 1.94 1.692 2.85 3.861 3.69 8.75 1.7 9.977 5.44 15.754 13.81 21.347 3.51 2.34 14.16 2.28 16.29-0.1 1.97-2.191 4.06-7.731 6.32-16.747 0.96-3.85 2.42-7.788 3.24-8.75 1.87-2.197 6.02-2.251 9.07-0.118 2.23 1.564 2.3 1.982 1.62 10.063-0.87 10.474 0.15 13.236 6.36 17.222 16.71 10.72 40.99 6.65 55.91-9.368 6.33-6.79 10.22-13.722 10.22-18.193 0-2.168 0.75-3.369 2.91-4.641 5.95-3.515 10.31-1.23 12.57 6.581 2.11 7.332 4.27 20.625 5.07 31.301l0.69 9.1-3.03 2.15c-5.14 3.66-18.1 2.66-30.67-2.37-6.16-2.46-6.55-2.5-10.22-0.96-16.57 6.95-37.15 5.56-52.48-3.54-5.8-3.45-7.47-4.04-8.75-3.1-4.24 3.1-9.16 4.54-16.78 4.92-7.2 0.35-8.88 0.09-13.87-2.19-3.61-1.66-7.96-4.94-11.97-9.02-3.46-3.538-7.93-13.519-8.31-13.269-2.47 1.608-0.44 10.909-0.44 14.619 0.3 11.25-3.95 14.79-8.29 10.21-3.2-3.43-6.06-22.464-9.95-20.683-3.54 1.982 1.56 22.223-1.12 24.903-3.03 3.03-5.22 3.27-9.5 1.06-2.76-1.43-3.4-1.43-6.97 0-4.56 1.83-15.56 2.06-21.39 0.46-5.81-1.59-16.79-9.22-22.26-15.46-2.61-2.97-5.13-5.408-5.62-5.415-0.48-0.007-0.57 2.695-0.2 5.995 0.54 4.77 3.16 15.1 1.8 17.4-2.35 3.97-6.89 4.82-10.7 2.01-1.56-1.16-7.28-21.54-7.28-21.54-3.03-0.67 0.5 14.7-0.08 18.46-0.58 3.75-1.58 7.47-2.23 8.25-1.78 2.15-8.55 1.79-10.93-0.59-1.8-1.8-2.01-3.43-2.12-16.25-0.17-19.48-1.01-27.864-2.88-28.766-1.41-0.68-18.92-5.064-20-5.007-0.27 0.014-0.53 6.438-0.57 14.276-0.09 15.907-1.72 23.557-6.13 28.807-2.82 3.35-9.128 6.94-12.193 6.94-1.085 0-5.246 2.46-9.245 5.47-17.174 12.93-29.419 16.53-44.073 12.98-9.411-2.28-17.396-6.96-25.227-14.8-11.973-11.97-15.708-22.36-15.696-43.647 0.025-44.172 16.625-80.275 40.738-88.601 1.336-0.524 2.716-0.86 4.11-1.185zm47.595 84.973c-3.084-0.439-7.178 6.357-8.4 13.946-0.822 5.104-0.678 6.584 1.014 10.404 1.084 2.46 2.611 4.46 3.392 4.46 0.782 0 2.128-1.91 2.991-4.25 3.057-8.27 3.838-12.315 3.521-18.247-0.282-5.301-0.576-6.037-2.517-6.313zm299.5 13.387c-2.31 0.654-4.01 2.583-5.68 4.213-5.42 5.42-5.36 6.64 0.38 7.47 1.65 0.25 3.3 0.51 3.67 0.59s1.33-0.1 2.14-0.41c1.1-0.43 1.38-1.85 1.11-5.68-0.2-2.81-0.8-5.534-1.32-6.056l-0.3-0.127z"/>
  <path d="m661.24 34.932c2.65 1.928 4.29 4.955 6.04 7.671 6.27 9.932 6.86 11.37 8.32 20.434 2.44 15.1-3 31.355-13.23 39.553-10.39 8.32-23.78 13.28-35.74 13.24-8.3-0.03-13.49-1.24-21.31-4.96-7.76-3.69-11.87-7.4-19.09-17.231-3.82-5.2-6.15-7.531-7.13-7.153-1.94 0.745-6.36 10.228-7.43 15.944-1.17 6.26-5.48 10.79-9.52 9.98-5.69-1.13-6.69-3.03-6.37-12.22 0.15-4.548-0.17-8.682-0.71-9.188-0.87-0.816-16.56-3.221-17.27-2.648-0.15 0.125-0.53 2.651-0.84 5.613-1.34 12.793-9.6 17.073-21.34 18.943-13.5 2.15-17.96 2.26-21.27 0.55-5.67-2.93-10.21-11.07-10.21-18.289 0-4.524-2.26-9.687-5.12-11.688-3.54-2.48-12.3-2.112-18.51 0.777-6.39 2.979-6.98 3.922-4.55 7.349 1.07 1.509 3.64 6.073 5.71 10.141 2.93 5.77 3.87 8.93 4.25 14.3 0.68 9.48-1.45 13.93-7.76 16.19-5.28 1.9-5.66 1.9-13.48 0-7.32-1.77-9.73-3.29-13.56-8.57-2.68-3.71-2.98-4.87-2.98-11.72 0-5.63 0.5-8.51 1.93-11.1 1.07-1.922 2.4-4.51 2.98-5.747 0.57-1.238 1.5-2.25 2.07-2.25 1.57 0 1.24-2.294-1.48-10.406-3.22-9.59-3.25-15.14-0.12-19.059 2.1-2.627 2.99-2.963 7.75-2.953 6.69 0.014 10.05 2.095 12.91 8 1.18 2.43-5.02 7.65-4.88 7.65s10.14-4.132 13.34-5.232c8.29-2.851 14.92-2.62 21.57 0.75 6.02 3.05 11.16 9.547 12.92 16.346 0.56 2.147 1.48 5.696 2.05 7.887 1.12 4.344 3.47 6.224 6.71 5.374 2.28-8.702 0.62-19.243 8.83-26.58 4.04-3.298 6.22-4.701 9.2-4.744 1.26-0.018 9.52 1.164 12.95 2.628 5.4 2.313 7.82 2.7 18.49 2.958 6.76 0.164 12.64 0.52 13.08 0.791s3.02-0.637 5.72-2.018c8.32-4.242 14.81-1.266 23.83 10.929 6.59 8.922 11.36 13.214 16.32 14.705 6.35 1.911 17.81 2.361 22.99 0.911 10.65-2.979 20.56-10.838 24.8-19.656 2.56-5.334 2.77-6.71 2.77-17.781-0.01-9.514-0.45-13.347-2.13-18.5-0.66-2.072-1.16-3.552-1.69-5.768-0.11-0.48-0.73-2.989-0.39-3.865 0.07-0.202 0.38-0.192 0.58-0.288zm-218.2 64.921c-1.98 0-4.89 6.577-4.87 10.997 0.02 5.56 2.21 8.62 7.51 10.5 5.09 1.81 5.9 1.52 6.27-2.25 0.17-1.71-0.16-4.83-0.73-6.95-1.08-4.03-6.58-12.297-8.18-12.297zm80.86-17.564c-1.36 0.239-2.29 0.39-3.14 1.599-4.04 5.775-5.29 11.335-1.51 13.746 1.55 0.989 3.37 0.852 4.8-0.063 0.91-0.583 1.61-1.432 2.15-2.463 0.9-1.747 1.38-4.12 1.38-6.941-0.09-0.873 0.02-0.523-0.21-1.08 0.07-0.327 0.22-0.648 0.21-0.983-0.02-1.283-0.58-2.377-1.6-3.138-1.08-0.608-0.41-0.317-2.08-0.677z"/>
  <path d="m315.47 27.77c2.43 0.067 4.73 0.759 6.53 2.427 2.51 2.682 2.1 4.8-1.41 7.096-3.23 2.12-4.72 1.966-7.27-0.755-2.22-2.363-2.65-4.293-1.57-7.104 0.7-1.445 2.32-1.529 3.72-1.664z"/>
  <path d="m484.32 24.385c1.81 0.002 3.34 0.957 4.88 1.771 6.47 3.428 8.15 5.577 6.98 8.922-0.85 2.422-1.5 2.742-5.93 2.929-2.74 0.115-5.9-0.172-7.02-0.638-5.34-2.225-6.06-9.339-1.22-12.04 1.32-0.701 0.56-0.36 2.31-0.944z"/>
 </g>
</svg>
