<svg xmlns:rdf="http://www.w3.org/1999/02/22-rdf-syntax-ns#" xmlns="http://www.w3.org/2000/svg" height="100" width="191.05" version="1.1" xmlns:cc="http://creativecommons.org/ns#" xmlns:dc="http://purl.org/dc/elements/1.1/" viewBox="0 0 191.04195 100.00101">
 <g transform="matrix(.21501 0 0 .21501 -41.187 -47.899)">
  <path d="m635.64 685.67c-13.43-5.455-21.875-17.404-27.976-39.585-4.9436-17.972-2.8274-60.508 3.0672-61.654 8.5437 2.2873 10.514 17.528 12.154 30.404 3.3348 12.239 5.2924 25.004 11.089 36.708 1.3821 2.7091 4.6386 6.7076 7.2367 8.8856 4.2129 3.5318 5.411 3.9073 11.078 3.4728 9.3333-0.71561 16.945-6.5751 22.073-16.992 3.3923-6.8908 4.0467-9.7632 4.4797-19.664 0.5507-12.59-0.4048-19.775-6.0558-45.535-7.4853-34.123-11.227-54.042-11.227-59.77 0-3.2294-0.5101-7.6501-1.1335-9.8237s-1.5079-12.295-1.9655-22.492c-0.4577-10.197-1.2437-18.964-1.7468-19.482-0.7601-0.78349-8.0963-1.3777-27.008-2.1877-3.4367-0.14719-8.1462-4.8699-8.1462-8.169 0-7.5888 8.122-11.702 25.617-12.974l9.9925-0.72647 1.0915-5.9993c0.6004-3.2996 0.7875-6.3034 0.4159-6.675-0.3717-0.37164-13.234 3.57-28.584 8.7592s-30.224 9.7998-33.055 10.246c-2.8306 0.44595-6.7545 2.093-8.7198 3.6601l-3.5733 2.8492-0.4908 17.87c-0.3149 11.469 0.066 20.363 1.0643 24.83 2.0677 9.255 6.9407 20.085 9.0371 20.085 1.939 0 10.695-8.9054 14.006-14.244 1.2342-1.9906 4.296-9.8656 6.804-17.5 4.775-9.733 5.0932-9.8531 10.144-14.427 0 0 2.3971-1.5269 5.6158 1.4839 4.1924 3.9215 5.6975 11.931 4.3889 23.356-0.5957 5.2013-1.4743 10.582-1.9524 11.957-4.7592 13.686-13.686 25.052-25.022 31.861-6.4994 3.9035-8.1147 4.337-15.406 4.1344-13.425-0.37303-21.776-6.1684-28.159-19.542-7.5972-15.919-9.2684-24.262-9.3939-46.897l-0.072-12.944-5.3125 0.75248c-14.106 1.9981-28.264 2.2208-46.292 0.7281-11.945-0.98899-20.175-1.1816-20.858-0.48824-1.8355 1.8631-3.8522 21.041-4.3267 41.145-0.2434 10.312-0.5029 19.461-0.5766 20.331-0.2602 3.0702-8.0225 6.5346-14.652 6.5394-5.2361 0.004-7.1273-0.63635-10.45-3.5373l-4.0569-3.542-0.497-17.396c-0.2733-9.5675-0.4927-18.046-0.4876-18.841 0.01-1.3481-3.4455-2.0531-17.49-3.5698-13.487-1.4564-17.632-1.6612-17.214-0.85033 9.6934 18.79 12.648 29.19 11.969 42.125-0.6836 13.025-4.3914 19.542-14.659 25.765-6.4881 3.9324-7.7089 4.2235-17.597 4.1966-14.002-0.0381-22.454-3.8674-29.662-13.438-6.3719-8.4611-7.9292-14.314-7.974-29.968-0.041-14.267 2.1278-24.37 7.0241-32.725 1.7113-2.9201 3.1115-7.1159 3.1115-9.324 0-5.623 3.0988-10.99 7.7278-13.383 5.5736-2.8822 21.482-2.6453 43.522 0.6482 11.27 1.6841 22.374 2.5687 29.361 2.339 9.9807-0.32814 11.288-0.64111 11.701-2.8016 1.1079-5.7905 6.6646-12.185 13.181-15.168l6.5764-3.0108 22.403 1.9927c22.385 1.9912 38.881 1.7064 48.316-0.83411 4.218-1.1358 4.7117-1.693 4.7117-5.3174 0-2.2268 0.9245-5.3686 2.0544-6.9817 1.7015-2.4292 1.9284-5.0001 1.3213-14.966-0.6237-10.238-1.4032-13.503-5.2272-21.894-2.4717-5.4239-4.8189-12.231-5.2159-15.128-0.4454-5.4174 2.4115-11.316 8.3046-12.024 8.0672-0.59129 15.603 1.9508 18.708 6.3108 2.8203 3.9607 10.665 25.732 11.903 33.032 0.4503 2.6563 2.2965 7.8428 4.1027 11.526 2.9604 6.0362 3.5987 6.6197 6.4792 5.923 6.9334-1.677 29.019-9.3333 44.445-15.408 8.9375-3.5194 18.62-7.2539 21.516-8.2989 5.3552-1.932 6.5433-2.967 18.233-15.884 5.7586-6.363 7.2081-7.3125 11.164-7.3125 4.8795 0.19878 10.146 2.1824 13.94 4.6442 3.2498 2.1293 4.2172 4.4824 4.3428 10.563 0.062 3.0068-4.9539 10.933-8.1659 12.904-3.2875 2.0169-7.8064 11.848-10.384 22.592-1.4618 6.0927-2.3396 11.396-1.9507 11.785 0.3889 0.38894 7.1908 1.2597 15.115 1.935 13.684 1.1662 14.586 1.0966 17.942-1.3852 8.2727-6.1162 11.157-6.5096 22.7-3.096 8.3382 2.4657 13.354 3.1229 23.957 3.1391 7.3758 0.0112 14.126-0.52253 15-1.1862 0.8742-0.66365 4.1182-1.9316 7.2088-2.8176 11.651-3.3402 22.507-9.0202 23.303-12.193 0.7727-3.0787-0.2237-27.472-1.5614-38.225-0.4083-3.2817-0.3952-7.3496 0.029-9.0398 1.4918-5.9438 12.98-8.9822 21.572-5.7053 8.3203 3.1735 11.854 23.478 10.785 61.962-0.5538 19.927-0.2793 27.417 1.3526 36.91 4.3676 25.407 14.496 43.715 24.185 43.715 10.294 0 19.458-10.052 30.94-33.936 6.8901-14.333 10.492-16.721 21.537-14.276 4.6548 1.0303 10.37 7.0502 13.562 14.285 5.899 13.37 29.029 19.644 44.807 12.152 7.9624-3.7803 18.159-14.745 18.291-19.668 0.062-2.3044 4.9479-7.9089 8.4983-9.7472 1.6051-0.83108 3.6678-3.2939 4.5839-5.4729 5.1627-12.281 16.417-20.837 27.409-20.837 8.7859 0 18.641 4.3055 24.11 10.533 10.132 11.537 18.016 29.915 16.104 37.536-1.2213 4.8662-11.545 15.408-18.581 18.973-9.2797 4.7024-23.233 5.3855-34.698 1.6989-4.9065-1.5777-9.7432-3.6907-10.748-4.6957-1.603-1.603-2.7099-0.9854-9.0188 5.0323-13.015 12.414-25.661 16.721-45.588 15.528-13.897-0.83238-22.635-3.4966-31.838-9.708-2.9725-2.0062-5.754-3.6476-6.181-3.6476-0.4271 0-1.7669-0.89631-2.9774-1.9918-2.0518-1.8569-2.3861-1.624-4.934 3.4375-4.3406 8.6227-13.869 20.516-19.312 24.106-7.9968 5.2734-16.949 7.3108-29.488 6.7113-10.442-0.49922-11.342-0.77554-18.248-5.6008-3.9953-2.7916-9.7954-8.193-12.889-12.003-9.4675-11.66-18.319-38.184-20.462-61.315-0.3074-3.3173-0.8254-6.298-1.1511-6.6238-0.3257-0.32572-2.4865 0.43667-4.8018 1.6942-5.5506 3.0148-19.113 7.4873-25.772 8.4988-5.7919 0.87983-6.1148 1.318-3.6817 4.9966 2.2846 3.454 7.9726 17.682 9.5927 23.994 1.9037 7.418 1.9182 17.55 0.034 23.698-2.3139 7.5501-9.2051 13.667-19.483 17.293-10.613 3.7447-17.801 3.907-24.381 0.55055-17.38-8.8669-26.732-27.697-26.756-53.877l-0.013-13.306-15.39-0.88678c-8.4648-0.48772-15.737-0.54009-16.161-0.11637-1.27 1.27 1.9306 43.886 4.6404 61.786 2.6873 17.752 4.2543 25.408 10.276 50.204 2.0869 8.5938 4.295 18.438 4.9068 21.875 3.0338 17.046 0.03 38.525-7.2132 51.57-5.5317 9.9632-17.593 22.553-25.458 26.574-12.406 6.3418-28.435 7.9872-38.396 3.9414zm-238.08-161.43c0.3222-7.8788-0.1125-10.075-3.3718-17.04-2.058-4.3977-4.2435-7.9958-4.8568-7.9958-2.4201 0-4.0071 6.8754-4.1224 17.86-0.1675 15.965 2.908 21.719 9.4811 17.736 2.0646-1.2509 2.5644-3.09 2.8699-10.559zm365.79-13.251c1.1083-1.1084 1.9643-4.0703 1.9643-6.7974 0-6.46-3.439-21.099-5.8702-24.988-2.4823-3.9709-8.0653-10-9.2601-10-1.3131 0-3.6197 11.639-3.6197 18.264 0 6.5836 3.1284 17.138 6.5351 22.048 2.6958 3.8854 7.1922 4.5316 10.251 1.4732zm287.44-30.51c1.3058-1.3058-1.0381-9.859-3.6988-13.498-2.2042-3.0143-7.8106-0.75144-11.424 4.6112-3.6081 5.3542-3.6206 8.6143-0.039 10.138 3.2268 1.373 13.375 0.53515 15.162-1.2517zm-774.86 106.61c-1.4412-0.30333-3.5411-2.7459-4.9582-5.7673-3.2316-6.89-3.905-28.246-2.0375-64.616 1.5536-30.256 1.8702-29.003-7.718-30.531-23.019-3.6686-44.737-15.487-61.224-33.315-7.6441-8.2662-8.4375-9.6205-8.4375-14.403 0-13.94 20.685-16.336 24.177-2.8004 0.8516 3.3008 11.141 11.883 22.556 18.815 7.9402 4.8213 24.889 10.985 30.206 10.985h3.0605l-0.027-14.688c-0.015-8.0781-0.6219-22.844-1.3492-32.812-1.9211-26.328-2.5377-78.064-1.1546-96.875 2.6-35.362 12.69-74.899 21.213-83.125 1.0685-1.0312 3.0082-3.9707 4.3106-6.5321 4.6057-9.058 8.7666-10.402 21.009-6.7876 10.041 2.9648 15.077 6.648 19.92 14.57 7.2687 11.889 11.765 26.085 17.818 56.25 6.9456 34.616 9.5103 59.151 9.5103 90.98 0 45.251-5.5552 63.704-24.544 81.525-7.8912 7.4062-16.706 12.317-28.504 15.878l-7.4222 2.2408-0.078 46.25c-0.084 50.101 0 49.443-7.0429 53.604-3.2249 1.905-12.951 2.487-19.285 1.154zm34.628-130.61c1.8579-1.2982 5.9546-5.2943 9.1039-8.8802 13.112-14.929 16.224-29.298 15.306-70.669-0.6263-28.229-1.3953-36.628-5.8576-63.976-2.9392-18.014-5.5413-29.568-8.999-39.958-2.1468-6.451-2.8952-7.608-3.6489-5.641-0.5215 1.361-1.3734 3.5995-1.8932 4.9745s-1.0976 3.7919-1.284 5.3708c-0.1864 1.579-1.2085 7.204-2.2713 12.5-3.0203 15.05-5.4801 41.192-6.3169 67.129-1.0869 33.693-2.9898 77.981-3.937 91.631l-0.8071 11.631 3.6138-0.87534c1.9875-0.48142 5.1338-1.9375 6.9916-3.2357zm619.75-44.115c-1.7188-0.9916-4.4008-2.3795-5.96-3.0842-6.1305-2.7708-6.5596-13.14-0.8257-19.954 2.4897-2.9589 4.4858-3.8731 9.9462-4.5553 6.1885-0.7732 7.0696-0.57537 9.3636 2.1025 1.3928 1.6258 4.1632 6.4526 6.1565 10.726 3.0989 6.6441 3.4118 8.226 2.1592 10.916-2.5155 5.4016-14.358 7.5891-20.84 3.8494z"/>
 </g>
</svg>
